# xmcd
#
# Track frame offsets:
#	150
#	14445
#	26627
#	43515
#	64457
#	78562
#	97895
#	112172
#	125415
#	138782
#	154587
#	167387
#	185962
#	206115
#
# Disc length: 3009
#
# Revision: 1
# Processed by: cddbd v1.5.1PL0 Copyright (c) Steve Scherf et al.
# Submitted via: VisiTrax 2.9.3.171 - For more info visit www.synapsa.com
# Normalized: r0:DSETVAR1
#
DISCID=c00bbf0e
DTITLE=Various Artist - Mr Music Country 9-00
DYEAR=1900
DGENRE=
TTITLE0=The Derailers - The Lost And Found
TTITLE1=Billy Keeble - Wild Turkey And Seven-Up
TTITLE2=Iris DeMent - A miss a Lot Of Trains
TTITLE3=Bill and Bonnie Hearne - L.A. Freeway
TTITLE4=Laurie Hayes - I've Had It
TTITLE5=Joe Ely - Saint Valentine
TTITLE6=Ilse DeLange - If You Had The Heart
TTITLE7=Roger Wallace - Wishful Drinking
TTITLE8=Tom Russel with Nanci Griffith - Canadian Whiskey
TTITLE9=Hank Thompson - The Night Miss Nancy Ann's Hotel For Single Girls Burned Down
TTITLE10=Erin Hay - You're a Lesson I've Already Learned
TTITLE11=Don Walser - Ramon
TTITLE12=Meredith Marshall - Across The Borderline
TTITLE13=Texas Tornados - South Of The Border
EXTD=
EXTT0=
EXTT1=
EXTT2=
EXTT3=
EXTT4=
EXTT5=
EXTT6=
EXTT7=
EXTT8=
EXTT9=
EXTT10=
EXTT11=
EXTT12=
EXTT13=
PLAYORDER=
